<svg xmlns="http://www.w3.org/2000/svg" viewBox="0 0 1200 720" role="img" aria-labelledby="title desc">
  <title id="title">Mapa de atuação Jeremias</title>
  <desc id="desc">Mapa placeholder com Cascais, Estoril e Oeiras.</desc>
  <defs>
    <linearGradient id="sea" x1="0" x2="1" y1="0" y2="1">
      <stop offset="0" stop-color="#F7F2EB"/>
      <stop offset="1" stop-color="#D8BA95"/>
    </linearGradient>
    <filter id="shadow" x="-20%" y="-20%" width="140%" height="140%">
      <feDropShadow dx="0" dy="18" stdDeviation="18" flood-color="#4B2E1E" flood-opacity=".12"/>
    </filter>
  </defs>
  <rect width="1200" height="720" rx="42" fill="#FFFFFF"/>
  <path d="M0 438c150-44 249-31 354-15 117 18 226 31 342-6 153-49 316-60 504-13v316H0Z" fill="#DDECF0"/>
  <path d="M0 420c145-49 260-44 374-25 119 20 220 28 337-16 144-54 312-57 489-19" fill="none" stroke="#8C6A4A" stroke-width="7" opacity=".35"/>
  <g opacity=".28" stroke="#8C6A4A" stroke-width="4" fill="none">
    <path d="M77 110c157 66 294 90 488 58 157-26 286 4 470 92"/>
    <path d="M166 284c180-80 350-100 550-43 110 31 209 39 337 20"/>
    <path d="M252 40c28 132 22 251-17 357"/>
    <path d="M530 52c33 119 40 237 21 355"/>
    <path d="M828 80c-27 118-26 222 9 315"/>
  </g>
  <g filter="url(#shadow)" font-family="Inter, Arial, sans-serif" font-weight="800" fill="#4B2E1E">
    <g transform="translate(334 280)">
      <path d="M0-76c-42 0-76 34-76 76 0 58 76 132 76 132S76 58 76 0C76-42 42-76 0-76Zm0 103a29 29 0 1 1 0-58 29 29 0 0 1 0 58Z" fill="#4B2E1E"/>
      <text y="162" text-anchor="middle" font-size="42">Cascais</text>
    </g>
    <g transform="translate(600 246)">
      <path d="M0-76c-42 0-76 34-76 76 0 58 76 132 76 132S76 58 76 0C76-42 42-76 0-76Zm0 103a29 29 0 1 1 0-58 29 29 0 0 1 0 58Z" fill="#4B2E1E"/>
      <text y="162" text-anchor="middle" font-size="42">Estoril</text>
    </g>
    <g transform="translate(862 270)">
      <path d="M0-76c-42 0-76 34-76 76 0 58 76 132 76 132S76 58 76 0C76-42 42-76 0-76Zm0 103a29 29 0 1 1 0-58 29 29 0 0 1 0 58Z" fill="#4B2E1E"/>
      <text y="162" text-anchor="middle" font-size="42">Oeiras</text>
    </g>
  </g>
</svg>
